<?xml version="1.0" encoding="UTF-8"?><svg xmlns="http://www.w3.org/2000/svg" viewBox="0 0 304.68 323.2"><defs><style>.h{fill:#312783;}.i{fill:#6d4015;}.j{fill:#783317;}.k{fill:#513109;}.l{fill:#8b571f;}.m{fill:#9c6b30;}.n{fill:#7a481a;}.o{fill:#878787;}.p{fill:#1d1d1b;}</style></defs><g id="a"/><g id="b"/><g id="c"/><g id="d"/><g id="e"><g><path class="l" d="M120.54,67.03c-.23-.35-1.24-1.81-.89-3.3,.18-.75,.75-1.7,1.6-1.94,1.42-.4,2.27,1.54,4.09,1.55,1.35,0,2.28-1.06,2.84-1.55,5.26-4.63,19.99,3.99,24.36-.19,.26-.25,1.06-1.09,2.31-1.36,1.18-.25,2.92-.03,3.73,1.17,.72,1.06,.17,2.1,.18,4.86,0,1.08,.09,1.74,.53,4.66,2.09,13.76,3.14,20.65,3.73,24.29,.73,4.51,2.06,12.62,2.67,21.96,.72,10.96,.17,19.16-.53,29.54-.99,14.63-2.05,16.65-2.49,29.93-.28,8.54,.16,7.62-.18,16.91-.55,15.21-.83,22.82-1.96,27.01,0,0-2.74,10.2-1.6,15.94,.64,3.21,1.07,4.28,1.07,4.28,.69,1.71,1.29,2.28,1.07,3.11-.33,1.23-2.15,1.88-3.56,1.75-1.48-.14-2.83-1.18-3.38-2.53-.64-1.56-.1-3.29-.18-3.3-.09-.01-.02,2.58-1.42,4.47-.7,.95-2.26,2.37-3.38,1.75-1.05-.58-.24-3.47-.89-3.69-.54-.18-1.02,1.78-2.67,2.53-1.49,.67-3.46,.14-3.73-.78-.29-.98,1.47-2,1.24-2.53-.45-1.05-7.85,2.46-17.07,2.72-1.63,.05-4.84,.03-5.16-1.17-.28-1.09,1.93-2.71,1.78-2.92-.15-.2-1.93,1.59-4.62,2.33-1.01,.28-3,.83-3.73-.19-.63-.88-.15-2.64,.71-3.69,1.48-1.8,4.27-1.71,4.27-1.75,0-.05-4.06,1.36-5.51-.39-.64-.77-.68-2.05-.36-2.92,.6-1.62,2.54-2.1,4.27-2.53,1.31-.32,3.03-.5,3.91-.58,1.68-.17,2.05-.11,2.24-.42,.65-1.05-2.14-3.76-3.84-6.57-2.2-3.64-1.91-6.37-2.67-13.22-.81-7.32-1.19-4.68-4.09-21.77,0,0-2.26-7.4-2.13-13.6,.02-1.06,.08-1.8,.08-1.8,.22-2.83,.81-4.74,.63-4.8-.23-.09-.81,3.22-3.2,4.66-.08,.05-1.59,.95-2.13,.39-.69-.71,.9-3.12,.18-3.89-.54-.57-1.68,.46-2.49,0-1.52-.88-.39-6.26-.36-6.41,3.35-15.88,.56-16.75,5.16-29.73,5.72-16.17,9.76-14.01,12.8-27.01,2.29-9.8,1.79-18.7,1.6-21.77-.49-7.77-.91-14.53-2.84-17.49Z"/><path class="m" d="M138.85,161.69c.02,.09,.03,.13,.06,.21,.06,.15,.15,.25,.19,.29,.04,.05,.23,.23,.67,.36,.24,.07,.52,.15,.9,.08,.17-.03,.47-.09,.76-.34,.05-.04,.56-.49,.49-.83-.17-.74-3.18-.56-3.23-.21,0,.07,.09,.14,.16,.44Z"/><g><path class="j" d="M153.6,208.94l-35.68-10.65c-4.94-1.47-7.87-7.09-6.53-12.49l4.56-18.25c1.35-5.4,6.49-8.61,11.43-7.13l35.68,10.65c4.94,1.47,7.87,7.09,6.53,12.49l-4.56,18.25c-1.35,5.4-6.49,8.61-11.43,7.13Z"/><path class="n" d="M158.65,190.44l-36.25-10.82c-4.84-1.45-7.72-6.96-6.4-12.25h0c1.32-5.29,6.37-8.44,11.21-7l36.25,10.82c4.84,1.45,7.72,6.96,6.4,12.25h0c-1.32,5.29-6.37,8.44-11.21,7Z"/><polygon class="i" points="124.71 200.39 120.59 199.16 130.09 161.16 134.2 162.39 124.71 200.39"/><polygon class="i" points="151.66 208.36 147.54 207.13 157.03 169.14 161.15 170.37 151.66 208.36"/><path class="i" d="M135.9,163.35c-.02-.13,.38-.14,.82-.56,.37-.36,.38-.63,.73-1.19,.21-.33,.55-.89,1.03-1.17,.54-.32,1.06-.15,2.07,.08,1.53,.35,.1-.09,2.88,.52,1.12,.25,2.08,.46,3.42,.82,2.93,.79,2.31,.84,3.6,1.08,1.26,.23,2.01,.22,2.6,.91,.49,.58,.71,1.35,.71,1.35,.15,.54,.08,.8,.3,1.5,.13,.39,.28,.71,.38,.92,.43,.82,.82,1.08,.74,1.23-.09,.16-.67,.04-1.1-.26-.4-.28-.6-.66-.74-.96-.08-.15-.24-.5-.43-1.47-.24-1.2-.13-1.34-.33-1.64-.32-.49-.88-.52-1.74-.65-1.16-.18-2.28-.55-3.42-.82-.52-.12-1.59-.37-2.95-.75-.74-.2-1.3-.37-2.3-.62-1.35-.34-1.95-.44-2.7-.27-.17,.04-.39,.07-.62,.19-.05,.02-.32,.16-.57,.4-.55,.54-.37,1.05-.77,1.38-.59,.47-1.57,.19-1.6,0Z"/><g><polygon class="i" points="128.19 186.45 124.08 185.22 124.87 182.04 128.99 183.27 128.19 186.45"/><path class="o" d="M128.46,186.97l-4.86-1.45,1-4,4.86,1.45-1,4Zm-3.91-2.05l3.37,1.01,.59-2.37-3.37-1.01-.59,2.37Z"/></g><path class="o" d="M155.48,194.67l-4.86-1.45,1-4,4.86,1.45-1,4Zm-3.91-2.05l3.37,1.01,.59-2.37-3.37-1.01-.59,2.37Z"/><polygon class="o" points="153.95 192.53 152.84 192.2 153.44 189.79 154.55 190.12 153.95 192.53"/><polygon class="o" points="126.98 184.83 125.87 184.5 126.47 182.09 127.59 182.43 126.98 184.83"/></g><path class="m" d="M153.08,121.32c-2.84-.13-5.21,4.39-6.16,6.22-1.62,3.1-1.52,4.69-2.84,8.81-1.32,4.11-2.18,4.81-3.19,6.89,0,0-.56,1.2-1.08,2.7-1.66,4.82-2.49,14.24-1.33,14.54,.13,.03,.19-.08,.65-.11,.29-.02,.44,.01,1.42,.19,.56,.1,.76,.13,.93,.16,.21,.03,.6,.09,.7,.1,1.02,.08,2.35-2.97,2.38-2.96,.03,.02-2.77,4.18-1.66,7,.41,1.03,1.37,1.97,2.13,1.81,.63-.13,.97-.96,1.19-1.47,.76-1.82,.46-3.71,.47-3.72,.02,0-.44,6.45,1.66,7.51,1.23,.62,2.95-.8,3.56-1.3,6.67-5.5,12.98-26.25,6.16-40.94-2.41-5.19-4.5-5.42-4.98-5.44Z"/><ellipse class="p" cx="128.92" cy="69.18" rx="1.61" ry="1.76"/><ellipse class="p" cx="149.46" cy="69.18" rx="2.09" ry="2.29"/><path class="k" d="M134.06,75.42c.04,.98,.69,1.61,1.55,2.44,.79,.77,1.31,1.27,2.13,1.41,.93,.17,1.66-.26,2.56-.77,1.11-.64,1.75-1.4,1.92-1.61,.58-.72,1.28-1.58,1.12-2.44-.14-.74-.84-1.12-1.28-1.35-1.05-.55-1.67-.34-4.58-.13-1.73,.13-2.36,.11-2.88,.77-.06,.07-.57,.75-.53,1.67Z"/><path class="k" d="M128.07,74.94c-1.81-.2-4.32-.25-7.23,.39-2.22,.49-4.05,1.24-5.45,1.94"/><path class="k" d="M130.77,77.45c-2.33-.28-5.58-.35-9.34,.55-2.86,.69-5.23,1.76-7.04,2.76"/><path class="k" d="M128.72,79.99c-1.81,.07-4.31,.4-7.12,1.46-2.14,.81-3.86,1.83-5.16,2.73"/><path class="k" d="M167.05,71.19c-2.33-.28-5.58-.35-9.34,.55-2.86,.69-5.23,1.76-7.04,2.76"/><path class="k" d="M163.96,81.21c-2.12-1.09-5.17-2.32-8.99-2.79-2.91-.36-5.47-.19-7.48,.11"/><path class="k" d="M163.1,76.6c-2.28-.56-5.49-1.14-9.29-1.13-2.9,0-5.34,.35-7.22,.74"/><g><path class="h" d="M126.75,62.14c-.75-1.08-.04-3.08,.2-3.77,.67-1.9,1.91-2.96,2.25-3.24,.44-.36,1.61-1.22,6.52-1.55,2.98-.21,4.47-.31,6.4,.13,1.9,.43,3.9,.88,5.45,2.72,1.48,1.75,2.43,4.61,1.55,5.69-.52,.64-1.55,.48-2.14,.4-5.39-.73-12.4-.38-14.94-.13-2.81,.27-4.55,.84-5.3-.25Z"/><path class="p" d="M128.34,63.21c-.85,0-1.47-.19-1.9-.81-.88-1.27-.13-3.38,.15-4.17,.64-1.82,1.77-2.93,2.38-3.43,.68-.55,2.11-1.32,6.73-1.64,3.01-.21,4.52-.31,6.5,.14,1.88,.43,4.02,.91,5.66,2.85,1.6,1.89,2.6,4.97,1.55,6.26-.65,.79-1.77,.64-2.44,.55-5.56-.76-12.63-.35-14.89-.13-.62,.06-1.19,.13-1.7,.2-.79,.1-1.47,.19-2.04,.19Zm10.91-9.38c-.96,0-2.05,.07-3.49,.17-4.92,.34-5.97,1.19-6.32,1.47-.44,.36-1.53,1.37-2.12,3.05-.22,.61-.87,2.47-.25,3.36h0c.45,.65,1.56,.51,3.23,.29,.52-.07,1.1-.14,1.72-.2,2.28-.22,9.43-.63,15.02,.13,.56,.08,1.43,.2,1.8-.26,.66-.81-.13-3.44-1.54-5.12-1.47-1.74-3.39-2.17-5.25-2.59-.96-.22-1.81-.3-2.8-.3Z"/></g><g><path class="h" d="M128.19,63.4c-.35,.15-1.25,.53-1.54,1.43-.17,.51-.12,1.16,.12,1.55,.66,1.12,2.96,.64,6.28,0,2.8-.54,5.62-1,8.42-1.55,6.53-1.3,7.33-1.1,7.35-1.43,.11-1.53-17.73-1.24-20.63,0Z"/><path class="p" d="M128.51,67.48c-1,0-1.7-.23-2.07-.86-.3-.51-.37-1.29-.16-1.93,.35-1.07,1.38-1.51,1.77-1.68h0c2.72-1.16,19.1-1.6,20.87-.17,.26,.21,.29,.46,.28,.6-.03,.51-.33,.55-1.59,.74-.99,.15-2.84,.43-6.08,1.07-1.53,.3-3.07,.58-4.6,.85-1.27,.23-2.55,.46-3.82,.7l-.27,.05c-1.77,.34-3.23,.62-4.33,.62Zm11.96-4.68c-4.96,0-10.64,.35-12.14,1h0c-.3,.13-1.09,.46-1.32,1.17-.13,.39-.09,.89,.08,1.18,.5,.85,2.76,.42,5.62-.13l.27-.05c1.27-.25,2.55-.47,3.83-.7,1.53-.27,3.06-.55,4.59-.85,3.25-.64,5.11-.92,6.11-1.08,.14-.02,.27-.04,.39-.06-1.24-.32-4.18-.48-7.42-.48Z"/></g></g></g><g id="f"/><g id="g"/></svg>