<?xml version="1.0" encoding="UTF-8"?><svg xmlns="http://www.w3.org/2000/svg" viewBox="0 0 304.68 323.2"><defs><style>.h{fill:#312783;}.i{fill:#6d4015;}.j{fill:#783317;}.k{fill:#7a481a;}.l{fill:#e3cda0;}.m{fill:#878787;}.n{fill:#80be63;}.o{fill:#1d1d1b;}.p{fill:#063;}</style></defs><g id="a"><g><g><rect class="j" x="187.7" y="168.38" width="70.17" height="51.54" rx="12" ry="12"/><rect class="k" x="187.7" y="168.38" width="70.47" height="26.2" rx="8.04" ry="8.04"/><rect class="i" x="202.96" y="168.29" width="5.39" height="51.71"/><rect class="i" x="238.2" y="168.21" width="5.39" height="51.71"/><path class="i" d="M210.71,168.86c-.06-.16,.42-.32,.82-1.02,.34-.6,.27-.94,.52-1.79,.15-.5,.4-1.34,.9-1.87,.57-.6,1.24-.59,2.54-.68,1.96-.14,.09-.15,3.67-.43,1.44-.11,2.67-.2,4.41-.26,3.81-.11,3.07,.18,4.71,0,1.61-.18,2.51-.49,3.44,.17,.78,.55,1.27,1.45,1.27,1.45,.35,.63,.34,.99,.82,1.79,.27,.45,.55,.8,.75,1.02,.77,.88,1.32,1.06,1.27,1.28-.06,.24-.8,.31-1.42,.09-.57-.2-.93-.62-1.2-.94-.14-.17-.44-.54-.97-1.7-.66-1.43-.57-1.65-.9-1.96-.54-.5-1.23-.33-2.32-.17-1.46,.21-2.94,.16-4.41,.26-.67,.04-2.05,.13-3.82,.17-.96,.02-1.69,.02-2.99,.09-1.74,.08-2.51,.18-3.37,.68-.46,.27-.95,.56-1.27,1.19-.43,.85-.09,1.42-.52,2.04-.57,.82-1.86,.84-1.95,.6Z"/><g><rect class="i" x="202.96" y="196.7" width="5.39" height="4.34"/><path class="m" d="M208.84,201.59h-6.37v-5.45h6.37v5.45Zm-5.39-1.11h4.41v-3.22h-4.41v3.22Z"/></g><path class="m" d="M244.07,201.13h-6.37v-5.45h6.37v5.45Zm-5.39-1.11h4.41v-3.22h-4.41v3.22Z"/><rect class="m" x="240.11" y="195.72" width="1.46" height="3.27"/><rect class="m" x="204.93" y="196.17" width="1.46" height="3.27"/></g><g><g><ellipse class="l" cx="155.67" cy="177.36" rx="45.58" ry="39.66" transform="translate(-78.09 145.04) rotate(-40.85)"/><path class="o" d="M149.84,220.1c-15.74,0-29.76-8.55-35.32-23.38-7.88-21.02,4.17-46.8,26.86-57.48,10.98-5.17,22.78-6.07,33.24-2.55,10.49,3.53,18.37,11.1,22.19,21.29,7.88,21.02-4.17,46.8-26.86,57.48-6.68,3.14-13.55,4.63-20.12,4.63Zm-34.56-23.74c7.7,20.55,32.09,28.74,54.35,18.25,22.27-10.48,34.12-35.72,26.42-56.27-3.73-9.94-11.42-17.31-21.67-20.77-10.28-3.46-21.88-2.57-32.68,2.51-22.27,10.48-34.12,35.72-26.42,56.27Z"/></g><g><path class="p" d="M137.66,218.5c-.08-.56,1.28-1.35,2.46-1.69,2.17-.64,4.05,.12,4.91,.42,1.06,.37,3.73,.39,9.07,.42,3.31,.02,12.17-.78,21.15-6.77,9.23-6.16,13.75-14.65,15.49-17.99,1.86-3.58,3.05-6.94,4.72-11.64,1.96-5.51,2.32-7.64,2.46-9.52,.28-3.96-.43-6.99-.94-9.1-.83-3.42-2.44-10.01-7.56-15.03-4.75-4.66-10.04-5.51-15.3-6.35-6.41-1.03-11.39-.12-15.49,.63-3.87,.71-8.33,1.57-13.6,4.44-2.52,1.38-6.27,3.47-9.82,7.62-3.75,4.38-5.32,8.75-6.99,13.55-4.26,12.22-4,22.53-3.78,28.78,.27,7.88,.48,12.11,3.21,15.24,.68,.78,2.65,2.78,5.1,6.14,2.43,3.34,2.73,4.43,2.46,5.29-.55,1.76-3.3,2.12-4.53,2.12-.45,0-2.88-.02-4.34-1.9-1.13-1.46-1.22-3.41-1.32-3.39-.16,.04,1.19,4.01-.19,5.5-1.08,1.17-3.3,.25-3.4,.21-1.61-.69-2.41-2.37-2.64-2.96-.04-.1-.07-.19-.08-.22-.66-1.85-.18-3.35-.29-3.38-.14-.04-.3,2.25-1.51,4.02-1.18,1.73-3.52,3.21-5.48,2.54-1.05-.36-1.77-1.51-3.21-3.81-.65-1.05-1.53-2.45-2.27-4.44-.26-.71-.73-2.11-1.32-6.98-.87-7.15-.76-11.56-.73-12.69,.03-.87,.06-1.76,.16-2.98,.47-5.41,1.86-8.05,1.51-8.25-.48-.27-4.06,4-4.72,9.74-.1,.89-.07,2.5,0,5.71,.13,6.3,.19,7.62,.19,7.62,.14,3.32,.23,3.81-.19,4.44-.23,.35-.96,1.27-6.23,1.27-3.73,0-4.45-.45-7.37-.21-2.91,.24-3.07,.77-3.78,.42-3.29-1.61-3.32-14.66,1.32-25.4,2.57-5.96,5.8-9.38,11.71-15.66,4.36-4.63,8.83-8.38,17.75-15.87,4.19-3.51,7.74-7.96,12.09-11.22,1.71-1.28,4.7-3.38,5.86-7.2,.32-1.06,.6-2.56,.94-4.44,.78-4.26,.54-4.67,1.13-5.93,.78-1.63,2.09-2.5,4.72-4.23,2.74-1.81,4.1-2.71,5.86-2.54,1.73,.17,3,1.22,4.34,2.33,1.97,1.62,3.04,3.31,3.4,3.81,4.78,6.65,25.84,3.12,33.24-2.75,.39-.31,1.66-1.36,3.59-1.9,.33-.09,5.69-1.55,8.12,1.48,1.54,1.92,1.47,5.1,1.32,11.43-.02,.67-.05,1.75,.19,3.17,.38,2.24,1.21,3.85,1.89,5.08,2.02,3.68,3.35,5.17,4.16,6.56,2.33,4.01,1.4,9.02,.57,13.55-1.92,10.43-7.34,14.66-5.29,19.47,.16,.38,.93,1.73,2.46,4.44,2.56,4.54,2.61,4.35,2.83,5.08,.91,3.05-.79,3.78-1.13,10.16-.21,3.9,0,7.2,0,7.2,.17,2.63,.4,3.36,0,4.66-.94,3.02-3.87,4.25-4.34,4.44-.51,.22-3.74,1.57-5.1,0-1.49-1.73,.22-5.9-.38-6.14-.42-.17-.98,1.99-2.83,3.39-1.76,1.33-4.42,1.78-5.29,.63-1.12-1.48,1.02-5.23,.57-5.5-.36-.22-1.38,2.4-3.78,4.02-1.94,1.31-4.84,2-5.67,.85-1.03-1.44,1.3-5.5,2.83-7.62,3.02-4.18,4.88-3.55,9.07-8.47,.71-.83,2.46-2.98,4.16-6.14,1.42-2.66,2.6-5.67,2.36-5.82-.27-.18-2.42,3.38-2.55,3.6-.71,1.19-1,1.78-1.42,2.54-1.57,2.81-3.29,4.68-4.44,5.93-1.83,1.98-1.95,1.63-4.44,4.02-3.73,3.58-3.79,4.69-6.23,6.56-1.84,1.41-3.37,1.96-6.42,3.07-.91,.33-4.71,1.67-10.77,2.43-5.56,.7-4.82-.12-10.11,.63-1.36,.19-4.26,.65-8.12,.42-1.56-.09-3.87-.25-3.97-.95Z"/><path class="o" d="M123.24,226.32c-.99,0-1.91-.38-1.97-.41-1.72-.74-2.58-2.49-2.87-3.2-.04-.11-.08-.2-.09-.23-.11-.31-.19-.62-.25-.91-.21,.55-.48,1.13-.85,1.66-1.27,1.86-3.78,3.44-5.93,2.7-1.19-.41-1.94-1.6-3.42-3.98-.66-1.06-1.56-2.49-2.31-4.54-.24-.64-.73-1.98-1.35-7.1-.78-6.42-.79-10.75-.73-12.76,.02-.82,.05-1.76,.16-3,.29-3.37,.93-5.65,1.31-7.01,.03-.11,.06-.21,.09-.32-1.08,1.17-3.28,4.53-3.79,8.91-.1,.86-.06,2.46,0,5.64,.13,6.21,.19,7.6,.19,7.61l.05,1.21c.1,2.3,.13,2.85-.32,3.53-.44,.68-1.59,1.45-6.56,1.46-1.69,.01-2.75-.09-3.7-.17-1.15-.1-2.06-.18-3.64-.04-1.38,.12-2.12,.29-2.61,.41-.54,.13-.87,.21-1.36-.03-.77-.38-1.38-1.24-1.82-2.58-1.53-4.64-.85-14.67,2.94-23.44,2.61-6.03,5.87-9.5,11.8-15.8,4.38-4.65,8.86-8.41,17.78-15.9,1.84-1.54,3.58-3.3,5.27-4.99,2.16-2.17,4.39-4.41,6.84-6.25l.22-.16c1.76-1.31,4.41-3.29,5.48-6.8,.31-1.03,.58-2.51,.93-4.39,.32-1.75,.47-2.83,.57-3.62,.15-1.12,.22-1.63,.6-2.43,.83-1.74,2.18-2.63,4.88-4.41,2.81-1.85,4.21-2.79,6.1-2.6,1.85,.18,3.16,1.27,4.55,2.42,1.81,1.49,2.88,3.04,3.34,3.7l.13,.19c4.65,6.47,25.56,2.81,32.68-2.84,.47-.37,1.78-1.42,3.72-1.98,.24-.07,5.91-1.64,8.53,1.62,1.65,2.06,1.58,5.3,1.43,11.75v.1c-.02,.67-.04,1.67,.18,2.98,.36,2.13,1.14,3.66,1.83,4.92,1.3,2.36,2.32,3.84,3.07,4.92,.42,.6,.78,1.13,1.08,1.63,2.42,4.17,1.47,9.33,.62,13.89-.88,4.76-2.47,8.25-3.76,11.05-1.57,3.42-2.6,5.69-1.56,8.13,.15,.35,.96,1.79,2.43,4.4,1.11,1.98,1.75,3.05,2.14,3.7,.51,.85,.6,1.01,.74,1.48,.53,1.76,.24,2.86-.16,4.37-.35,1.35-.79,3.03-.95,5.96-.21,3.79,0,7,0,7.14,.04,.65,.09,1.19,.13,1.65,.12,1.42,.18,2.13-.15,3.19-.91,2.91-3.51,4.27-4.59,4.72-1.49,.63-4.2,1.44-5.54-.11-1.08-1.25-.73-3.47-.5-4.94,.02-.15,.05-.32,.07-.48-.44,.74-1.11,1.86-2.26,2.73-1.88,1.42-4.77,1.95-5.83,.55-.82-1.08-.29-2.9,.16-4.31-.61,.86-1.53,2.04-2.84,2.92-1.85,1.25-5.13,2.23-6.2,.74-1.5-2.08,2.39-7.58,2.83-8.2,1.57-2.17,2.87-3.11,4.24-4.09,1.32-.94,2.81-2.01,4.84-4.4,1.52-1.78,2.93-3.88,4.1-6.06,.71-1.33,1.31-2.65,1.73-3.67-.39,.59-.82,1.28-1.22,1.95-.49,.81-.77,1.34-1.03,1.84-.12,.23-.24,.45-.37,.69-1.59,2.86-3.34,4.76-4.5,6.01-1,1.08-1.5,1.48-2.14,1.99-.55,.44-1.18,.94-2.32,2.05-1.78,1.71-2.73,2.86-3.48,3.79-.83,1.01-1.48,1.81-2.78,2.81-1.89,1.45-3.44,2.01-6.53,3.13-1.72,.62-5.42,1.77-10.85,2.45-2.77,.35-3.99,.33-5.16,.3-1.18-.02-2.29-.05-4.94,.33l-.22,.03c-1.49,.22-4.27,.62-7.98,.4-2.85-.17-4.22-.42-4.35-1.34h0c-.18-1.33,2.73-2.2,2.76-2.21,2.16-.63,4.07,.05,4.98,.37l.15,.05c1.01,.35,3.83,.37,8.95,.4,1.8-.02,11.28-.26,20.94-6.71,9.3-6.2,13.85-14.95,15.34-17.83,1.85-3.55,3.04-6.92,4.69-11.58,2.03-5.73,2.31-7.71,2.43-9.39,.28-3.96-.45-6.96-.93-8.94-.84-3.45-2.41-9.88-7.43-14.8-4.66-4.57-9.96-5.42-15.08-6.24-6.35-1.02-11.35-.1-15.36,.63-3.64,.67-8.17,1.5-13.49,4.4-2.29,1.25-6.13,3.35-9.7,7.52-3.77,4.4-5.29,8.77-6.9,13.39-4.31,12.38-3.95,22.93-3.75,28.6,.28,8.02,.53,12,3.09,14.93,.12,.14,.29,.32,.49,.54,.92,1,2.62,2.86,4.64,5.63,2.56,3.51,2.86,4.68,2.52,5.74-.75,2.38-4.49,2.43-4.92,2.42-1.14,0-3.27-.28-4.65-2.06-.06-.07-.11-.15-.16-.22-.02,.9-.21,1.77-.75,2.37-.51,.55-1.2,.72-1.86,.72Zm-4.88-7.87s.08,0,.13,.02c.38,.11,.34,.54,.31,.83-.06,.51-.17,1.58,.27,2.83l.08,.2c.25,.61,.98,2.11,2.41,2.72,.57,.24,2.22,.7,2.97-.11,.88-.96,.38-3.41,.16-4.46-.12-.58-.15-.75-.04-.96l.09-.16,.18-.05c.43-.1,.53,.38,.59,.71,.12,.6,.37,1.85,1.13,2.83,1.17,1.51,3.03,1.74,4.04,1.75,1.43,0,3.72-.47,4.14-1.81,.21-.68-.11-1.73-2.39-4.85-1.99-2.72-3.67-4.56-4.57-5.55-.21-.23-.38-.41-.5-.56-2.9-3.32-3.06-7.92-3.33-15.54-.2-5.73-.57-16.41,3.81-28.97,1.57-4.51,3.19-9.16,7.08-13.7,3.68-4.29,7.6-6.43,9.94-7.71,5.43-2.97,10.02-3.81,13.71-4.49,4.07-.75,9.14-1.67,15.61-.64,5.25,.84,10.67,1.71,15.51,6.46,5.21,5.1,6.82,11.71,7.68,15.25,.47,1.92,1.25,5.14,.96,9.26-.15,2.11-.61,4.36-2.48,9.66-1.67,4.7-2.87,8.09-4.75,11.7-1.52,2.93-6.15,11.83-15.63,18.15-9.6,6.41-18.77,6.87-21.37,6.84-5.54-.03-8.06-.05-9.19-.44l-.16-.06c-.91-.32-2.6-.93-4.53-.36-1.12,.33-1.95,.9-2.13,1.17,.45,.38,2.77,.52,3.55,.57,3.63,.22,6.36-.18,7.83-.39l.22-.03c2.71-.39,3.85-.36,5.05-.34,1.15,.02,2.34,.05,5.06-.3,5.36-.68,8.99-1.8,10.69-2.41,3.01-1.09,4.53-1.64,6.32-3.01,1.22-.94,1.82-1.66,2.64-2.67,.77-.94,1.73-2.11,3.55-3.86,1.17-1.13,1.84-1.67,2.38-2.1,.61-.49,1.09-.87,2.04-1.91,1.13-1.22,2.84-3.07,4.38-5.84,.13-.23,.25-.45,.37-.68,.27-.51,.56-1.05,1.06-1.88,2.49-4.14,2.75-3.96,3.1-3.74l.15,.1,.07,.23c.18,.77-1.52,4.43-2.43,6.13-1.2,2.24-2.65,4.39-4.21,6.22-2.1,2.47-3.64,3.57-5,4.54-1.37,.99-2.56,1.84-4.05,3.89-1.94,2.69-3.54,6.06-2.83,7.04,.6,.84,3.19,.36,5.13-.95,1.4-.95,2.31-2.24,2.9-3.1,.5-.72,.83-1.2,1.28-.93,.48,.29,.28,.93-.07,1.99-.37,1.15-.93,2.89-.38,3.62,.67,.89,3.11,.52,4.74-.72,1.01-.77,1.63-1.8,2.04-2.48,.38-.64,.69-1.15,1.16-.96,.55,.22,.43,.97,.25,2.11-.21,1.36-.51,3.23,.28,4.14,.73,.85,2.47,.8,4.66-.11,.97-.41,3.31-1.63,4.1-4.17,.27-.87,.22-1.44,.11-2.8-.04-.46-.09-1.01-.13-1.67,0-.14-.21-3.41,0-7.26,.16-3.04,.64-4.84,.99-6.16,.4-1.51,.61-2.34,.17-3.82-.1-.35-.14-.42-.64-1.26-.39-.65-1.03-1.73-2.15-3.72-1.58-2.81-2.31-4.09-2.48-4.49-1.21-2.85-.04-5.41,1.57-8.94,1.26-2.76,2.83-6.18,3.68-10.82,.81-4.38,1.72-9.35-.51-13.2-.27-.47-.61-.96-1.04-1.57-.76-1.1-1.8-2.6-3.12-5-.74-1.34-1.55-2.95-1.94-5.23-.24-1.41-.22-2.47-.2-3.18v-.1c.15-6.21,.22-9.32-1.21-11.11-2.29-2.85-7.49-1.41-7.71-1.34-1.79,.51-3.01,1.48-3.41,1.8-7.56,6-28.87,9.62-33.84,2.69l-.14-.2c-.44-.63-1.47-2.11-3.18-3.53-1.3-1.07-2.52-2.08-4.14-2.24-1.62-.16-2.95,.72-5.61,2.48-2.56,1.69-3.85,2.54-4.57,4.05-.32,.66-.37,1.06-.51,2.13-.11,.8-.25,1.89-.58,3.67-.35,1.91-.63,3.42-.96,4.5-1.16,3.81-4.06,5.97-5.8,7.27l-.22,.16c-2.41,1.8-4.62,4.02-6.75,6.17-1.7,1.71-3.46,3.47-5.32,5.04-8.91,7.48-13.38,11.23-17.72,15.84-5.86,6.22-9.08,9.65-11.62,15.53-3.64,8.43-4.35,18.36-2.91,22.72,.36,1.08,.83,1.79,1.38,2.06,.24,.12,.34,.1,.86-.03,.51-.12,1.29-.31,2.73-.43,1.64-.14,2.63-.05,3.76,.04,.93,.08,1.96,.16,3.63,.17,3.35,0,5.45-.39,5.9-1.08,.26-.4,.26-.7,.16-2.94l-.05-1.21s-.06-1.4-.19-7.63c-.07-3.23-.1-4.86,0-5.78,.6-5.14,3.57-9.36,4.7-10.03,.23-.14,.44-.16,.62-.06,.45,.26,.3,.77-.01,1.89-.37,1.33-.99,3.54-1.28,6.82-.11,1.22-.13,2.1-.16,2.95-.06,1.98-.05,6.26,.72,12.61,.61,5.01,1.09,6.31,1.29,6.87,.72,1.95,1.59,3.34,2.22,4.36,1.38,2.21,2.08,3.32,2.99,3.63,1.73,.6,3.91-.74,5.03-2.38,.79-1.16,1.11-2.58,1.28-3.34,.1-.45,.19-.87,.53-.87Z"/></g><g><path class="h" d="M155.17,126.51c-.37-.49,.08-1.84,1.01-4.52,.74-2.13,1.1-3.19,1.89-4.52,.67-1.13,1.33-1.88,2.64-3.39,1.34-1.53,2.03-2.31,3.15-2.96,.9-.53,1.66-.74,2.52-.99,1.96-.56,3.51-.57,3.9-.56,.09,0,.41,.01,1.05,.04,.82,.03,2.11,.08,2.48,.1,1.49,.11,2.71,.91,4.16,1.83,1.41,.9,2.38,1.52,3.27,2.82,1.04,1.52,1.39,3.1,1.64,4.23,.14,.62,.22,1.4,.38,2.96,.37,3.58,.18,3.92,0,4.09-.23,.22-.85,.11-2.03-.01h-.08c-.1-.02-.34-.04-.58-.07-.2-.02-.37-.04-.59-.06-.44-.04-.65-.06-.8-.07-.37-.03-.42-.03-.71-.07-1.34-.19-1.69-.44-3.27-.85-.83-.21-1.2-.29-1.54-.35-.78-.14-1.38-.19-1.61-.21-1.02-.08-1.78-.01-2.27,0-2.32,.07-3.49,.1-3.9,.14-1.05,.1-1.93,.4-3.4,.82-.67,.19-1.08,.32-1.51,.45-1.48,.45-2.99,.83-4.42,1.47-.15,.07-.54,.25-.92,.08,0,0-.24-.14-.45-.41Z"/><path class="o" d="M155.97,127.45c-.16,0-.33-.03-.5-.1-.07-.04-.35-.2-.61-.54h0c-.54-.71-.08-2.05,.94-4.98,.75-2.16,1.12-3.24,1.93-4.6,.69-1.17,1.36-1.93,2.69-3.45,1.33-1.51,2.06-2.35,3.25-3.05,.95-.55,1.75-.78,2.61-1.03,1.9-.54,3.43-.59,4.01-.58,.08,0,.35,.01,.89,.03h.16c.82,.04,2.12,.09,2.49,.11,1.54,.11,2.77,.9,4.2,1.81l.14,.09c1.42,.91,2.45,1.57,3.4,2.94,1.09,1.59,1.46,3.28,1.71,4.4,.14,.65,.22,1.44,.39,3.01,.38,3.72,.2,4.18-.14,4.51-.33,.32-.85,.26-1.88,.14l-1.69-.18c-.43-.04-.65-.06-.79-.07l-.2-.02c-.21-.02-.3-.02-.54-.06-.84-.12-1.31-.27-1.9-.45-.37-.11-.8-.25-1.41-.4-.81-.21-1.18-.29-1.52-.35-.67-.12-1.22-.18-1.57-.21-.79-.06-1.43-.03-1.89-.01h-.33c-2.24,.08-3.47,.11-3.88,.15-.81,.08-1.54,.29-2.54,.58l-.79,.23c-.55,.16-.93,.27-1.29,.38l-.22,.07c-.35,.11-.7,.21-1.06,.31-1.11,.32-2.25,.66-3.32,1.13-.13,.06-.41,.18-.73,.18Zm-.48-1.25c.15,.2,.33,.3,.33,.3,.19,.08,.46-.04,.57-.09,1.12-.5,2.29-.84,3.42-1.17,.35-.1,.7-.21,1.05-.31l.22-.07c.36-.11,.75-.23,1.31-.39l.79-.23c1.04-.3,1.79-.52,2.68-.6,.43-.04,1.6-.08,3.93-.14h.32c.49-.03,1.15-.06,1.98,0,.52,.04,1.09,.12,1.64,.22,.35,.06,.73,.15,1.57,.36,.63,.16,1.07,.3,1.45,.41,.58,.18,1,.31,1.79,.43,.22,.03,.3,.04,.49,.05l.2,.02c.14,.01,.36,.03,.8,.07l1.7,.18c.57,.06,1.15,.13,1.28,.06,.05-.1,.15-.68-.16-3.67-.16-1.55-.24-2.32-.37-2.91-.24-1.11-.58-2.62-1.56-4.06-.84-1.23-1.76-1.81-3.15-2.7l-.14-.09c-1.34-.85-2.49-1.59-3.84-1.69-.37-.03-1.65-.07-2.47-.1h-.16c-.53-.03-.8-.04-.87-.04-.55-.01-1.99,.04-3.8,.55-.84,.24-1.57,.44-2.43,.95-1.04,.61-1.68,1.32-3.04,2.88-1.3,1.48-1.95,2.22-2.6,3.32-.76,1.28-1.12,2.33-1.85,4.43-.64,1.85-1.3,3.76-1.08,4.05Z"/></g><g><ellipse class="o" cx="191.3" cy="134.06" rx="4.34" ry="4.37"/><path class="o" d="M191.3,138.89c-2.62,0-4.76-2.17-4.76-4.84s2.13-4.84,4.76-4.84,4.76,2.17,4.76,4.84-2.13,4.84-4.76,4.84Zm0-8.75c-2.17,0-3.93,1.75-3.93,3.91s1.76,3.91,3.93,3.91,3.93-1.75,3.93-3.91-1.76-3.91-3.93-3.91Z"/></g><g><ellipse class="o" cx="144.02" cy="136.61" rx="4.34" ry="4.37"/><path class="o" d="M144.02,141.45c-2.62,0-4.76-2.17-4.76-4.84s2.13-4.84,4.76-4.84,4.76,2.17,4.76,4.84-2.13,4.84-4.76,4.84Zm0-8.75c-2.17,0-3.93,1.75-3.93,3.91s1.76,3.91,3.93,3.91,3.93-1.75,3.93-3.91-1.76-3.91-3.93-3.91Z"/></g><g><ellipse class="o" cx="144.76" cy="136.86" rx="2.79" ry="3.12"/><path class="n" d="M144.75,140.44c-1.58,0-2.96-1.32-3.17-3.13-.11-.95,.12-1.89,.64-2.65s1.28-1.24,2.12-1.37c.85-.12,1.69,.13,2.36,.72,.68,.58,1.11,1.43,1.22,2.38,.23,1.96-1.01,3.76-2.76,4.01-.14,.02-.28,.03-.41,.03Zm0-6.25c-.1,0-.2,0-.31,.02-.63,.09-1.19,.45-1.58,1.01-.39,.56-.56,1.26-.47,1.97,.17,1.45,1.36,2.49,2.66,2.3,1.3-.19,2.22-1.53,2.05-2.98-.15-1.34-1.18-2.32-2.35-2.32Z"/></g><g><ellipse class="o" cx="191.69" cy="134.63" rx="2.77" ry="3.22" transform="translate(-13.53 21.69) rotate(-6.26)"/><path class="n" d="M191.78,138.31c-1.59,0-3.01-1.38-3.24-3.25-.13-1,.1-1.98,.64-2.76,.51-.74,1.25-1.21,2.07-1.32,1.73-.23,3.35,1.22,3.6,3.22,.13,1-.1,1.98-.64,2.76-.51,.74-1.25,1.21-2.07,1.32-.12,.02-.24,.02-.36,.02Zm-.18-6.42c-.09,0-.18,0-.27,.02-.6,.08-1.14,.42-1.51,.96-.4,.58-.57,1.31-.47,2.06,.19,1.51,1.4,2.61,2.69,2.44,.6-.08,1.14-.42,1.51-.96,.4-.58,.57-1.31,.47-2.06-.18-1.41-1.24-2.45-2.43-2.45Z"/></g><g><path class="h" d="M155.6,127.6c.03,.21,.01,.3,0,.63-.03,.82,.05,1.14,.05,1.53,0,1.01-.55,1.15-.8,2.28-.05,.22-.29,1.39,.14,2.38,.1,.24,.57,1.19,2.64,1.8,1.27,.37,2.49,.42,4.82,.11,.91-.12,2.11-.31,6.42-1.32,1.83-.43,2.76-.65,3.87-.95,2.77-.76,4.13-1.3,5.19-1.8,1.66-.77,2.34-1.31,2.55-1.48,.65-.53,2.68-2.18,2.36-3.6-.17-.74-.91-1.12-1.51-1.43-1.32-.68-2.38-.57-3.87-.58-2.87-.02-2.56-.44-5.81-.48-.23,0-.16,0-3.68,.11-3.79,.11-3.83,.11-4.16,.16-2.57,.4-2.84,1.14-4.86,1.22-.91,.04-1.83,.27-2.74,.16-.32-.04-.94-.14-1.04,.11-.09,.21,.32,.48,.42,1.16Z"/><path class="o" d="M159.91,137c-.9,0-1.63-.11-2.38-.33-2.01-.58-2.68-1.53-2.91-2.04-.48-1.09-.25-2.34-.17-2.7,.13-.58,.33-.94,.49-1.22,.18-.31,.29-.52,.3-.94,0-.14,0-.26-.02-.4-.02-.27-.05-.61-.03-1.15v-.22c.02-.17,.02-.22,0-.32h0c-.04-.28-.15-.46-.25-.63-.12-.2-.28-.47-.15-.8,.21-.53,.89-.45,1.39-.39,.61,.08,1.15,.01,1.72-.06,.34-.04,.69-.08,1.03-.09,1-.04,1.52-.24,2.19-.5,.64-.24,1.36-.52,2.63-.72,.31-.05,.36-.05,2.95-.13l3.82-.11c.96-.03,.98-.03,1.13-.03,1.69,.02,2.43,.14,3.15,.26,.66,.11,1.28,.21,2.66,.22h.57c1.26,0,2.24,0,3.47,.62,.64,.33,1.52,.78,1.74,1.74,.35,1.54-1.27,3.07-2.52,4.08-.59,.48-1.47,.99-2.63,1.53-1.03,.48-2.38,1.03-5.25,1.82-1.14,.31-2.11,.54-3.89,.96-4.29,1.01-5.5,1.2-6.46,1.33-1.03,.14-1.87,.21-2.59,.21Zm-4.16-10.25c.1,.19,.21,.44,.26,.78h0c.03,.21,.02,.34,.01,.53v.2c-.03,.48,0,.77,.02,1.03,.01,.17,.02,.33,.02,.49,0,.68-.22,1.06-.42,1.42-.15,.27-.29,.52-.39,.96-.05,.2-.25,1.24,.11,2.06,.13,.3,.63,1.05,2.38,1.56,1.24,.36,2.46,.39,4.66,.09,.9-.12,2.13-.32,6.39-1.32,1.76-.41,2.74-.64,3.86-.95,2.82-.77,4.13-1.31,5.13-1.78,.76-.35,1.8-.89,2.47-1.43,2.03-1.65,2.32-2.6,2.2-3.11-.12-.53-.76-.86-1.28-1.12-1.07-.55-1.93-.54-3.13-.54h-.57c-1.43-.01-2.08-.12-2.77-.23-.69-.11-1.4-.23-3.04-.25-.15,0-.17,0-1.1,.03l-3.82,.11c-2.5,.07-2.6,.08-2.86,.12-1.19,.18-1.87,.44-2.48,.68-.67,.26-1.31,.5-2.43,.55-.32,.01-.65,.05-.97,.09-.59,.07-1.2,.14-1.82,.07-.12-.01-.28-.04-.42-.04Z"/></g><g><path class="o" d="M137.47,158.61c1.85-1.66,1.84-2.48,3.4-4.23,1.93-2.17,4.01-3.25,6.17-4.37,3.55-1.84,6.47-2.49,9.32-3.1,6.48-1.39,11.57-1.22,13.35-1.13,3.34,.17,6.65,.37,10.7,1.98,2.29,.91,4.36,1.72,6.42,3.81,0,0,1.59,1.61,4.16,5.36,1.45,.99,1.64,1.41,1.64,1.41,.03,.08,.35,.83,0,1.55-.26,.53-.82,.98-1.26,.85-.58-.17-.65-1.27-1.01-2.54-.41-1.44-.98-2.32-2.08-4.02-1.63-2.52-3.55-3.93-4.47-4.59-2.67-1.92-5.08-2.51-7.69-3.12-3.99-.93-7.22-.83-10.26-.73-.64,.02-2.52,.09-4.96,.39-4.57,.56-7.79,1.51-8.81,1.82-3.45,1.06-5.07,1.99-5.89,2.49-1.36,.84-2.29,1.64-2.5,1.82-1.4,1.21-3.43,3.33-4.09,4.8-.12,.26-.6,1.41-1.13,1.83-.04,.04-.16,.12-.25,.28-.1,.17-.15,.38-.13,.99,.02,.65,.09,.71,.01,.84-.22,.39-.97,.22-1.02,.21-.32-.07-.92-.33-1.01-.78-.13-.63,.8-1.31,1.39-1.83Z"/><path class="o" d="M137.49,161.72c-.21,0-.39-.03-.48-.05-.12-.03-1.16-.29-1.33-1.13-.17-.83,.6-1.49,1.27-2.07l.26-.22c1.03-.92,1.45-1.56,1.93-2.29,.35-.53,.75-1.14,1.43-1.9,1.72-1.94,3.54-3.02,5.44-4.02,.87-.54,2.33-1.34,5.1-2.25,.36-.12,.71-.23,1.05-.33,1.78-.54,4.55-1.23,8.12-1.71,2.17-.3,4.14-.43,5.85-.48,3.01-.1,6.14-.16,10.05,.75l.07,.02c.52,.11,1.06,.24,1.61,.39,1.17,.3,2.36,.68,3.59,1.26,1.94,.79,3.8,1.68,5.63,3.53,.07,.07,1.62,1.66,4.16,5.35,1.35,.93,1.66,1.4,1.73,1.56,.08,.17,.43,1.08,0,1.97-.33,.68-1.06,1.27-1.73,1.07-.66-.2-.85-1-1.07-1.93-.07-.29-.14-.59-.23-.91-.39-1.37-.93-2.21-2.02-3.89-1.62-2.5-3.54-3.88-4.36-4.47-.81-.58-1.6-1.04-2.37-1.41-.31-.13-.63-.25-.95-.38-.86-.34-1.68-.61-2.47-.84-.59-.15-1.17-.29-1.77-.43-.03,0-.07-.02-.1-.02-2.23-.45-4.26-.56-6.25-.66-.98-.05-2.16-.08-3.51-.05-.1,0-.21,0-.31,0-1.56,.05-3.26,.19-4.93,.39-.2,.02-.4,.05-.6,.08-1.24,.17-2.55,.4-3.91,.69-1.31,.28-2.71,.58-4.22,1.04h-.02c-.23,.08-.46,.15-.67,.22-1.34,.44-2.77,1.01-4.31,1.81-.28,.14-.55,.28-.82,.43-1.23,.76-2.11,1.5-2.44,1.78-1.54,1.33-3.4,3.35-3.98,4.64-.31,.7-.74,1.59-1.26,2-.04,.04-.1,.08-.14,.15-.03,.04-.08,.14-.06,.72,0,.25,.02,.4,.03,.51,.02,.2,.04,.38-.09,.6-.22,.38-.63,.47-.97,.47Zm.24-2.76l-.27,.23c-.31,.27-1.02,.89-.97,1.14,.03,.13,.33,.35,.69,.43,.2,.04,.44,.04,.55,0v-.02c-.01-.12-.03-.3-.04-.58-.02-.64,.03-.97,.19-1.25,.13-.23,.29-.36,.35-.4,.1-.08,.2-.2,.31-.35-.23,.25-.5,.51-.82,.8Zm52.42-2.51c.24,.5,.44,1,.6,1.59,.1,.34,.17,.66,.24,.96,.14,.6,.28,1.21,.48,1.27,.2,.06,.59-.21,.79-.62,.25-.51,.02-1.07,0-1.13h0s-.26-.38-1.48-1.22l-.11-.11c-.18-.26-.35-.5-.51-.74Z"/></g></g></g></g><g id="b"/><g id="c"/><g id="d"/><g id="e"/><g id="f"/><g id="g"/></svg>