<?xml version="1.0" encoding="UTF-8"?><svg xmlns="http://www.w3.org/2000/svg" viewBox="0 0 304.68 323.2"><defs><style>.h{opacity:.7;}.i{fill:#f08590;}.j{fill:#877766;}.k{opacity:.58;}.l{fill:#a77b3f;}.m{fill:#fddbba;}.n{fill:#1d1d1b;}</style></defs><g id="a"/><g id="b"/><g id="c"/><g id="d"/><g id="e"/><g id="f"/><g id="g"><g><path class="l" d="M60.23,269.86c1.87,2.93,8.09,1.46,15.15,.67,6.16-.69,12.39-.06,18.57-.34,22.81-1.01,65.55-1.37,68.92-.34,.2,.06,.94,.33,1.63,0,0,0,.52-.25,1.63-2.35h0c2.58-1.74,3.26-2.52,3.26-2.52,.19-.22,2.52-2.96,1.47-4.87-.58-1.05-2-1.54-3.1-1.34-.29,.05-.42,.13-2.44,1.68-1.71,1.31-2.02,1.58-2.44,2.02-.95,.99-.8,1.15-1.3,1.51-1.17,.84-2.49,.35-4.4,.17-2.6-.24-3.1,.39-5.05,.34-3.34-.09-5.85-2.07-7.49-3.36-5.33-4.19-4.63-7.83-7.98-11.09-3.93-3.82-14.51-1.48-35.52,3.36-1.49,.34-5.13,1.23-5.91,3.7-.33,1.06,.09,1.67-.45,2.69-.78,1.46-2.54,1.86-4.89,2.35-3.16,.67-5.03,1.06-6.19,0-1.15-1.05-.92-2.87-.81-5.21,.23-5.21,.46-10.53-1.14-12.44-4.36-5.18-28.68,7.25-27.53,12.94,.4,2,3.73,2.16,5.21,6.05,1.18,3.09-.28,4.67,.81,6.39Z"/><path class="l" d="M178.51,264.99c-1.09,.88-1.31,3.35-.33,4.87,1.51,2.34,5.33,1.6,14.5,1.34,3.96-.11,7.93,.05,11.89,0,12.26-.16,10.84-.05,17.6-.17,15.08-.27,22.65-.44,24.11-2.19,4.88-5.82,.49-21.91-9.94-29.25-11.64-8.19-29.47-4.51-32.42,2.69-.51,1.24-1.83,5.63-.33,9.75,.32,.86,1.25,3.07,2.12,6.22,.19,.67,.54,2.01,.33,3.7-.12,.98-.26,2.05-.98,2.69-1.01,.9-2.46,.32-4.72,0-2.43-.34-4.17-.16-7.33,.17-4.5,.47-4.22,1.41-7.01,1.34-4.24-.09-6.11-2.3-7.49-1.18Z"/><path class="l" d="M284.13,194.31c.65,.45,1.55,1.08,2.69,2.02,2.35,1.94,3.52,2.91,4.28,4.29,1.79,3.27,.56,7.18,.12,8.57-.91,2.89-2.56,4.73-3.3,5.55-1.08,1.19-2.47,2.22-5.25,4.29-1.76,1.3-1.77,1.23-2.81,2.02-4.5,3.42-4.83,5.3-6.23,5.42-2.86,.25-7.08-7.03-7.82-14.75-1.08-11.33,5.39-23.01,10.02-22.82,.5,.02,3.11,1.82,8.31,5.42Z"/><path class="l" d="M142.33,71.89c1.07-.28,1.91,.29,2.75,.63,1.33,.53,1.69,.08,5.87-.25,3.23-.26,4.84-.39,6.11,.06,.36,.13,1.5,.78,3.79,2.08,1.83,1.04,2.76,1.57,2.99,1.76,2.11,1.72,3.02,4.05,3.42,5.11,.94,2.5,.24,2.81,1.28,4.66,.6,1.07,1.33,1.86,1.22,3.03-.08,.86-.56,1.45-.7,1.63-2.06,2.75,.53,11.85-2.05,16.14-2.33,3.87-9.54,4.93-14.24,2.52-2.17-1.11-3.78-4.12-6.9-10.09,0,0-4.43-8.46-6.96-22-.08-.41-.19-1.14,.06-1.95,.33-1.04,1.1-1.71,1.77-2.3,.66-.57,1.02-.89,1.59-1.04Z"/><g class="h"><path class="m" d="M68.54,129.51c.34,.72,1.12,1.99,1.55,2.69,1.69,2.77,3.24,4.76,3.67,5.29,3.11,3.88,8.72,7.62,11,8.82,8.39,4.43,31.75,6.37,46.43-10.25,13.47-15.25,14.04-39.81,3.42-52.44-8.59-10.22-23.33-11.23-38.53-12.27-2.29-.16-9.59,.12-24.19,.67-28.1,1.06-29.81,1.86-29.82,2.19,0,.4,2.59,.82,5.38,1.26,.95,.15,1.23,.17,6.44,.76,1.63,.18,3.25,.37,5.38,.84,1.22,.27,2.49,.16,3.26,1.09,.49,.61,.53,1.28,.61,1.75,.39,2.56,2.39,3.21,5.1,6.83,1.67,2.24,2.51,3.36,2.85,5.13,.33,1.72,.11,3.47-.24,6.22-.2,1.55-.41,2.56-.49,3.03-.75,4.27,1.31,6.87,1.79,10.59,1.03,7.89-6.09,12.55-3.58,17.82Z"/></g><path class="l" d="M68.3,128.75c-.43-.14-.68-.69-.98-1.34-.31-.68-.49-1.49-.41-3.28,.07-1.41,.26-2.47,.33-2.86,.63-3.57,.22-3.42,.73-5.88,.49-2.35,.87-2.56,1.55-5.55,.65-2.84,.72-3.17,.65-3.53-.43-2.35-2.72-3.39-2.28-4.62,.16-.46,.5-.37,1.06-1.01,.41-.47,.74-1.1,1.06-3.45,.32-2.37,.48-3.56,.16-4.79-.32-1.27-.65-1.13-1.14-2.61-.33-1-1.24-3.74,0-5.13,.61-.69,1.54-.8,2.61-.92,1.7-.2,3.02,.19,3.26,.25,1.16,.33,5.01,.44,12.71,.67,3.74,.11,5.61,.17,7.09,.08,4.1-.24,4.38-.78,8.8-1.26,2.42-.26,6.77-.59,12.06-.08,2.44,.23,4.21,.56,6.19,.92,3.47,.64,5.24,.98,7.01,1.85,0,0,2.7,1.33,4.97,3.87,7.22,8.07-1.33,38.4-6.6,37.99-.83-.06-1.02-.84-2.93-3.28-3.1-3.94-5.15-5.15-9.78-9.16-10.6-9.21-9.07-10.92-13.52-12.52-4.73-1.71-10.53-1.26-14.83,1.51-2.37,1.53-3.71,3.4-5.87,6.39-2.3,3.2-2.44,4.4-6.19,10.76-3,5.08-4.67,7.31-5.7,6.98Z"/><path class="n" d="M69.56,262.26c.04,1.75-.32,3.92-.98,4.03-.37,.06-.55-.57-1.59-1.64-.99-1.01-1.74-1.78-2.57-1.76-1.15,.02-1.25,1.53-3.3,3.03-.66,.48-1.82,1.31-3.42,1.39-2.14,.11-3.69-1.2-3.91-1.39-1.8-1.57-2.06-3.96-2.32-5.8-1.4-9.89-3.56-9.11-3.06-13.74,.5-4.66,2.71-5.67,3.91-11.72,.17-.85,.45-2.46,1.34-4.41,.95-2.08,2.08-3.66,2.08-3.66,1.07-1.51,1.69-1.94,1.95-3.15,.23-1.08-.11-1.43,0-2.4,.21-1.82,1.68-2.65,2.81-3.91,1.78-1.97,.81-2.87,3.05-9.83,.65-2.02,1.3-3.7,2.2-6.05,.73-1.89,1.04-2.59,2.08-5.29,.65-1.69,1.1-2.91,1.71-4.54,1.16-3.11,1.95-5.24,2.81-7.69,2.06-5.85,1.7-5.53,2.93-8.7,1.61-4.12,1.93-3.94,3.18-7.44,1.32-3.7,1.02-4.08,2.32-7.56,1.13-3.01,1.69-3.62,3.05-6.81,.84-1.96,1.99-4.9,3.05-8.7-.97,1.58-1.09,2.04-.98,2.14,.28,.24,1.69-1.95,4.28-2.52,.82-.18,1.18-.07,3.18,0,2.92,.11,2.65-.06,4.4,0,3.83,.14,4.45,.69,5.62,0,1.23-.73,1.22-1.73,2.32-1.89,1.01-.15,1.31,.66,2.93,.88,.62,.09,1.76,.24,2.69-.38,1.09-.73,.69-1.75,1.83-2.77,.84-.75,1.3-.43,2.69-1.13,.89-.45,1.57-1.14,2.93-2.52,1.44-1.46,2.3-2.33,3.05-3.78,.37-.7,.74-1.62,.86-1.89,.59-1.43,.65-1.88,1.1-2.65,.46-.79,.9-1.18,1.47-1.76,1.4-1.45,2.53-2.99,2.93-3.66,1.65-2.71,.71-6.25-.24-9.83-.56-2.13-1.27-3.59-2.08-4.79-.79-1.17-1.4-2.08-2.57-2.65-1.08-.52-1.98-.44-2.08-.88-.13-.63,1.65-.97,1.96-2.27,.08-.34,.07-.79-1.34-3.28-1.22-2.15-1.68-2.61-1.47-3.03,.45-.9,3.06,.21,3.91-1.01,.54-.77-.12-1.78,.37-2.14,.65-.48,1.85,1.24,3.54,1.13,1.41-.09,2.55-1.4,3.05-2.4,1.15-2.27,0-4.89-.73-6.56-.29-.65-1-2.14-2.81-4.16-1.04-1.17-3.53-3.89-7.7-5.8-3.83-1.75-7.07-1.89-10.14-2.02-2.64-.11-5.35,.22-10.75,.88-1.82,.22-3.99,.53-8.31,1.13-6.16,.86-6.82,1-8.43,.88-2.74-.2-5.32-.92-7.45-1.51-2.32-.65-3.21-1.07-5.38-1.39-2.44-.36-3.87-.2-3.91-.5-.05-.39,2.26-.95,6.72-2.27,5.29-1.57,7.93-2.35,9.16-2.9,2.54-1.12,3.5-1.88,5.5-1.89,1.66-.01,2.36,.5,3.79,0,1.68-.59,1.85-1.7,3.3-1.89,1.4-.18,1.58,.8,3.18,.88,2.12,.11,2.56-1.58,5.01-1.76,1.66-.12,1.67,.64,3.54,.63,2.31,0,2.56-1.16,5.01-1.51,2.15-.31,3.95,.29,5.74,.88,.67,.22,1.79,.74,4.03,1.76,3.6,1.65,3.17,1.57,3.79,1.76,3.33,1.08,4.39-.11,6.72,1.26,.81,.48,1.05,.84,2.32,1.51,1.23,.65,2.81,1.26,2.81,1.26-1.24-.73,2.47,1.47,3.67,2.27,1.25,.83,1.88,1.26,2.08,1.64,.75,1.48-.6,2.62,0,3.78,.66,1.27,2.49,.36,5.99,1.76,1.9,.77,1.83,1.23,3.67,1.76,1.63,.48,2.43,.33,3.3,1.13,.99,.92,1.18,2.26,1.22,2.65,.17,1.61-.7,1.9-.73,3.78-.03,1.66,.63,1.86,.49,3.28-.09,.92-.4,1.11-1.59,3.28-1.51,2.76-1.89,4.08-2.08,4.92-.26,1.16-.39,1.78-.12,2.52,.5,1.37,2.05,2.26,3.42,2.27,1.17,0,2.03-.62,3.42-1.64,.47-.34,1.15-.84,1.83-1.64,1.83-2.13,1.08-3.39,2.57-5.17,1.49-1.78,2.85-1.26,3.42-2.77,.64-1.69-.73-3.15,0-3.91,.65-.68,2.31-.1,3.18,.38,.96,.53,1.12,1.01,2.81,2.77,1.43,1.5,1.38,1.22,2.32,2.27,1.7,1.9,1.52,2.44,2.81,3.66,1.34,1.26,1.73,.87,3.3,2.14,1.91,1.55,1.52,2.28,3.18,3.78,2.15,1.95,3.16,1.04,5.5,3.03,1.81,1.53,1.23,2.09,3.18,3.66,1.69,1.35,2.55,1.28,4.15,2.77,1.13,1.05,1.24,1.58,2.2,2.77,2.4,2.98,3.92,2.38,6.84,5.17,2.58,2.46,1.69,3.2,4.15,5.17,2.38,1.9,3.25,1.23,5.38,3.28,1.45,1.39,1.5,2.14,3.54,4.16,1,.99,1.48,1.3,2.81,2.4,4.44,3.67,3.98,4.27,6.6,6.05,3.03,2.05,3.91,1.43,5.62,3.4,1.1,1.27,1.18,2.05,2.69,3.53,1.15,1.13,1.58,1.14,3.42,2.52,1.7,1.27,2.82,2.36,4.4,3.91,2.12,2.07,1.87,2.11,3.91,4.16,2.18,2.19,2.64,2.32,5.62,5.17,2.9,2.77,2.21,2.41,3.3,3.28,3.53,2.82,5.82,2.7,7.09,5.29,.43,.89,.41,1.41,1.1,2.27,.9,1.13,1.84,1.39,3.42,2.14,2.37,1.14,4.25,2.04,5.38,3.78,.95,1.47,.26,1.84,1.1,3.66,1.73,3.76,5.63,4.35,5.38,5.93-.08,.51-.95,1.01-2.69,2.02-2.13,1.24-2.88,1.26-3.3,2.14-.42,.88,.12,1.3,.12,3.03,0,.24-.03,2.49-1.22,4.54-1.29,2.21-2.95,2.51-2.81,3.66,.13,1,1.44,1.01,1.83,2.4,.38,1.32-.57,2.2-.12,2.77,.7,.89,3.31-.79,3.91,0,.44,.58-.38,2.26-1.47,3.28-.98,.92-1.57,.72-2.69,1.76-.56,.52-1.66,1.54-1.47,2.4,.32,1.39,3.77,.84,4.28,2.27,.31,.87-.66,1.95-3.54,4.92-3.16,3.25-4.12,4.15-5.5,5.67-2.62,2.9-5,5.58-4.28,7.19,.29,.64,.73,.39,2.57,1.89,2.01,1.65,2.26,2.6,2.32,2.9,.18,.88-.21,.95-.12,2.02,.17,1.96,1.56,2.34,1.47,3.78-.08,1.3-1.27,1.57-1.1,2.52,.15,.88,1.23,.94,2.81,2.14,.9,.69,2.52,1.92,2.81,3.66,.24,1.44-.69,1.71-1.1,4.16-.44,2.63,.45,3.34-.24,4.41-.36,.56-1.2,1.29-5.87,1.39-2.87,.06-4.6-.17-5.99-.25-4.02-.24-4.83,.76-9.9,1.39-4.15,.52-12.02,.89-12.71-1.39-.45-1.49,2.41-3.33,1.83-4.29-.52-.87-2.87,.7-6.11-.13-1.72-.44-1.46-.99-4.4-2.4-3.53-1.69-4.76-1.3-5.74-2.77-.82-1.22-.12-1.7-.86-4.03-.77-2.42-2.2-4.05-3.42-5.42-1.87-2.11-2.45-1.94-3.67-3.78-.58-.88-1.46-2.2-1.71-4.03-.39-2.79,.96-4.61,.49-4.92-.48-.31-2.64,1.15-3.3,3.4-.23,.78-.32,1.81,2.69,8.82,1.37,3.2,2.07,4.82,2.81,5.67,1.36,1.58,2.96,2.55,2.69,3.53-.08,.28-.26,.37-1.71,1.39-1.81,1.27-1.53,1.13-1.95,1.39-1.14,.69-2.11,1.27-3.42,1.39-.06,0-.03,0-2.08,0-1.03,0-1.55,0-1.59,0-1.59,.06-2.32,1.02-3.67,1.64-1.85,.85-4.42,.87-6.23-.38-.33-.23-1.81-1.25-2.08-2.9-.19-1.19,.4-1.73,0-2.52-.57-1.11-2.03-.58-2.81-1.64-.79-1.06,.3-2.12,0-4.29-.31-2.21-1.57-1.96-2.32-4.66-.4-1.44,.1-1.03-.24-5.29-.06-.79-.15-1.67,.37-2.4,.43-.61,.89-.56,1.34-1.13,.72-.89,.22-1.78,.49-2.77,.42-1.54,2.21-1.57,7.21-4.16,1.8-.93,2.61-1.47,3.42-2.27,1-.99,.89-1.29,2.08-2.65,1.12-1.29,2.16-2.1,3.67-3.28,1.77-1.38,2.18-1.49,3.18-2.52,1.26-1.3,1.95-2.01,1.83-2.77-.2-1.28-2.46-1.16-6.11-3.15-2.14-1.17-1.89-1.5-4.77-3.15-1.33-.77-2.4-1.27-4.52-2.27-2.32-1.09-3.48-1.64-5.13-2.27-3.13-1.19-3.5-.95-5.13-1.89-.78-.45-1.71-1.23-3.54-2.77-3.48-2.94-3.32-3.14-4.4-3.66-2.52-1.21-3.45-.1-5.25-1.39-1.9-1.36-1.29-2.89-3.05-3.91-1.99-1.15-3.28,.49-5.38-.63-1.95-1.04-1.38-2.76-3.42-3.78-.5-.25-.65-.21-4.89-.38-2.65-.11-3.14-.15-3.42,.25-.75,1.06,1.52,3.05,.73,4.92-.4,.95-1.14,.77-2.08,2.02-.73,.98-.94,1.95-1.22,3.66-.61,3.65-.56,4.32-.86,5.93-.75,4.02-1.82,3.58-2.08,6.56-.26,3.02,.79,4.01-.12,6.3-.54,1.34-.95,1.13-1.83,3.03-.72,1.54-.63,2.08-1.47,4.66-.68,2.11-.77,1.85-1.34,3.66-.39,1.24-.97,3.08-1.22,5.42-.35,3.3,.4,3.49-.24,5.17-.78,2.02-2,2.09-2.44,4.16-.03,.14,0,.05,0,3.28,0,3.77-.03,3.47,0,3.78,.12,1.35,.31,1.89,0,2.14-.54,.43-1.57-.8-2.93-.38-.61,.19-.99,.62-1.1,.76-.63,.75-.46,1.47-.73,2.65-.13,.56-.48,2.08-1.59,3.03-.88,.75-1.92,.87-3.18,1.01-.61,.07-.76,.03-2.69,0-1.83-.03-2.74-.04-2.93,0-2.13,.41-2.1,1.93-4.15,2.4-.27,.06-2.12,.48-3.67-.5-.99-.63-1.28-1.47-2.2-1.51-.55-.02-1.28,.24-1.47,.76-.33,.91,1.29,1.88,.98,2.65-.21,.52-1.18,.58-2.2,.63-2.23,.12-3.42-.5-3.91,.13-.38,.48,.07,1.16-.24,1.39-.55,.39-1.78-1.77-3.54-1.76-1.58,0-2.09,1.76-3.42,1.51-.55-.1-1.06-.78-2.08-2.14-.89-1.18-1.58-2.11-2.08-3.53-.43-1.24-.18-1.31-.61-2.14-.73-1.42-1.67-1.58-1.83-2.52-.14-.81,.45-1.3,1.1-2.4,.89-1.5,.51-1.82,2.08-8.07,.24-.97,.42-1.62,.86-2.4,.81-1.44,1.48-1.48,2.08-2.52,.84-1.46,.16-2.5,.37-4.79,.12-1.33,.41-1.65,1.59-4.79,1.47-3.91,2.25-5.98,2.81-8.7,.54-2.61,.28-2.97,.98-5.67,.48-1.85,.65-1.89,1.47-4.66,.69-2.33,1.12-4.17,1.59-6.18,.92-3.91,.64-3.39,.98-4.41,1.28-3.88,2.66-3.54,3.79-7.06,.84-2.63,.37-3.72,1.71-6.18,.59-1.07,.91-1.28,1.22-2.27,.75-2.36,.08-4.75-.04-5.14-.07-.24-.06-.18-.09-.28-.51-2.18,2.9-3.29,3.18-6.05,.12-1.15-.45-1.1-.49-3.15-.03-1.81,.41-2.29,0-2.9-.74-1.11-3.08-.86-4.52-.25-.73,.31-1.19,.5-1.47,1.01-.56,1.01,.32,1.97,.49,4.41,.08,1.1,.12,1.7-.12,2.4-.7,2.06-2.69,1.67-3.54,3.4-1.15,2.31,1.53,4.73,.12,7.06-.51,.84-.98,.72-1.47,1.76-.75,1.61,.02,2.67-.73,3.53-.83,.95-2.29,.22-2.69,1.01-.44,.87,1.19,2.02,.73,3.4-.21,.63-.59,.55-.98,1.26-.64,1.18,.08,2.04,0,3.66-.09,1.74-1.04,3.45-2.2,4.41-1.27,1.06-2.07,.63-2.81,1.64-.55,.76-.44,1.45-.37,3.91,.15,5.29-.27,6.17-.49,6.56-.53,.94-.76,.61-2.32,2.52-1.2,1.47-1.8,2.21-2.08,3.15-.57,1.93,.5,2.54,0,4.79-.35,1.59-1.21,2.7-1.59,3.15-.73,.86-1.09,.85-2.81,2.27-1.33,1.1-2,1.64-2.32,2.14-.87,1.34-.42,2.02-1.34,4.92-.3,.95-.26,.6-.86,2.27-1.14,3.21-1.03,3.77-1.83,4.66-1.01,1.12-2.32,1.64-2.32,1.64-.86,.34-1.31,.26-1.83,.76-.74,.7-.38,1.35-.98,1.89-1.02,.94-2.87-.26-3.42,.5-.44,.61,.56,1.59,.12,2.27-.57,.88-2.68-.07-3.3,.88-.38,.58,.14,1.35-.24,1.64-.4,.3-1.01-.45-2.08-.38-.07,0-1.06,.09-1.59,.76-.64,.81-.05,1.75,0,3.78Z"/><ellipse class="n" cx="56.97" cy="90.47" rx="11.85" ry="17.41" transform="translate(-44.99 58.31) rotate(-40.29)"/><path class="l" d="M41.66,87.99c.73,.49,1.91,.28,2.53-.34,.5-.5,.57-1.23,.65-2.69,.05-.85,0-2.02,0-2.02,1.01,.05,2.2-.07,2.69-.84,.54-.85-.22-1.8,.33-2.52,.67-.88,2.59-.56,3.67-.17,1.26,.46,1.26,.98,2.36,1.18,1.24,.22,1.63-.38,2.53,0,.86,.36,.69,1,1.71,1.76,1.18,.89,2.58,.92,2.93,.92,1.57,.03,2.08-.68,2.77-.34,1.23,.61,.64,3.49,.98,3.53,.32,.04,1.42-2.43,.49-3.78-.59-.86-1.63-.73-2.04-1.76-.2-.52-.14-1.07-.08-1.51,.13-1.1,.57-1.39,.49-1.85-.18-1.03-2.73-1.37-3.18-1.43-8.92-1.11-10.24,.25-15.15-.76-1.4-.29-2.78-.71-3.67,.08-.68,.6-.76,1.98-.9,4.71-.02,.46-.08,1.67,0,3.36,.12,2.65,.19,3.98,.9,4.45Z"/><ellipse class="n" cx="108.7" cy="89.67" rx="8.8" ry="2.77"/><ellipse class="n" cx="78.4" cy="90.35" rx="6.44" ry="2.09"/><ellipse class="n" cx="88.25" cy="101.98" rx="3.13" ry="5.91" transform="translate(-44.77 124.22) rotate(-58.62)"/><path class="n" d="M102.84,98.46c.98,1.42-.36,4.14-2.99,6.09s-5.57,2.37-6.55,.96c-.98-1.42,.36-4.14,2.99-6.09,2.63-1.95,5.57-2.37,6.55-.96Z"/><g class="k"><ellipse class="i" cx="113.59" cy="99.34" rx="6.03" ry="2.27"/></g><g class="k"><path class="i" d="M82.39,101.1c0,1.25-2.7,2.27-6.03,2.27s-6.03-1.02-6.03-2.27,2.7-2.27,6.03-2.27,6.03,1.02,6.03,2.27Z"/></g><path class="j" d="M74.49,128.33c.61,.26,1.51,.64,2.61,1.09,.41,.17,2.34,.97,2.85,1.18,2.09,.83,3.98,.95,6.52,1.18,6.78,.61,5.59,.88,8.31,.92,2.53,.04,1.4-.22,9.78-.92,2.01-.17,3.95-.8,5.95-1.09,.42-.06,1.85-.27,3.1-1.34,.17-.15,1.08-.93,.9-1.34-.17-.39-1.24-.27-2.69-.08-1.12,.14-1.92,.31-2.44,.42-.79,.16-2.16,.39-4.89,.84-1.86,.31-2.79,.46-3.18,.5-2.26,.25-3.97,.14-6.11,0-1.6-.11-3.02-.3-5.87-.67-5.08-.67-6.06-.99-6.6-1.18-1.55-.54-1.94-.9-3.42-1.26-1.86-.45-3.47-.43-4.56-.34"/></g></g></svg>