<?xml version="1.0" encoding="UTF-8"?><svg xmlns="http://www.w3.org/2000/svg" viewBox="0 0 304.68 323.2"><defs><style>.h{fill:#312783;}.i{fill:#af6c29;}.j{fill:#8b571f;}.k{fill:#ccc2a7;}.l{fill:#ee747d;}.m{fill:#605938;}.n{opacity:.45;}.o{fill:#935f30;}.p{fill:#1d1d1b;}</style></defs><g id="a"/><g id="b"/><g id="c"><g><path class="i" d="M90.71,62.49c.79-.8,2.22-.85,5.05-.92,2.09-.06,3.14-.09,4.51,.13,2.61,.42,2.64,1.05,5.71,1.58,1.45,.25,2.04,.22,2.97,.79,.37,.23,1.77,1.1,2.42,2.9,.47,1.31,.55,3.17,.55,3.17-.29,.29-.74,.68-1.32,1.06-.5,.32-1.27,.74-3.08,1.19-1.71,.42-1.83,.25-3.52,.66-.74,.18-1.55,.39-2.53,.79-2.37,.99-2.96,1.19-3.19,1.85-.03,.09-.26,.78,0,1.32,.43,.89,1.72,.47,1.98,1.19,.16,.45-.27,.87-.55,1.72-.46,1.36-.14,2.64,0,3.43,.17,.97,.05,1.16-.11,9.24-.2,10.11-.3,15.17-.22,17.03,.22,5.14-.24,10.31,.11,15.45,0,.08,.04,.64-.11,1.32-.09,.4-.37,1.65-1.21,1.98-.46,.18-.88,0-1.21-.13-.19-.08-.88-.38-1.32-1.19-.55-1.02-.21-1.96-.55-2.11-.32-.14-.96,.53-1.21,1.32-.28,.87,.11,1.31-.22,1.98-.26,.53-.84,.94-1.32,.79-.5-.15-.72-.83-.88-1.32-.43-1.32-.19-2.48-.33-2.51-.17-.04-.23,1.69-1.21,2.64-.7,.67-1.83,.94-2.31,.4-.48-.54-.05-1.65,.22-3.56,.22-1.53,.12-2.05,.11-5.15,0-3.55,.1-14.17,.33-20.99,.53-15.87,1.86-15.43,1.1-20.99-.42-3.08-.28-5.4,0-10.03,.16-2.6,.37-4.06,1.32-5.02Z"/><g><path class="h" d="M90.71,63.54c.86,.59,1.66-.38,3.52-1.06,2.42-.88,4.79-.54,9.55,.13,.07,0,.49,.05,1.33,.13,.96,.09,1.25,.12,1.65,0,.41-.12,.91-.27,1.1-.79,.17-.49,0-1.14-.33-1.45-.45-.43-1.15-.16-1.65,0-1.85,.61-4.58,1.02-4.95,.26-.11-.22-.08-.7,.77-1.85,.19-.68,.44-1.95,0-3.17-.68-1.88-2.57-2.4-4.4-2.9-1.63-.45-3.14-.87-4.84,0-.35,.18-2.29,1.18-2.97,3.56-.36,1.27-.2,2.37,0,3.7,.23,1.53,.43,2.9,1.21,3.43Z"/><path class="p" d="M91.27,64.16c-.25,0-.49-.07-.74-.24h0c-.92-.63-1.15-2.14-1.38-3.73-.2-1.36-.38-2.53,.01-3.91,.63-2.23,2.25-3.35,3.17-3.82,1.8-.93,3.38-.49,5.06-.02,1.91,.53,3.89,1.07,4.64,3.15,.37,1,.37,2.2,.01,3.48l-.07,.15c-.77,1.04-.72,1.35-.72,1.36,.22,.31,2.27,.27,4.53-.48l.08-.03c.52-.17,1.31-.43,1.88,.1,.48,.45,.67,1.31,.44,1.96-.25,.72-.91,.92-1.34,1.04-.47,.14-.82,.1-1.76,.01l-.16-.02c-.74-.07-1.12-.11-1.18-.12-4.7-.67-7.05-1-9.4-.15-.62,.23-1.12,.49-1.55,.71-.56,.29-1.04,.54-1.51,.54Zm-.38-.99c.39,.27,.77,.09,1.6-.35,.43-.23,.97-.51,1.63-.75,2.49-.91,4.9-.57,9.69,.12,.06,0,.43,.04,1.16,.12l.16,.02c.93,.09,1.19,.11,1.53,.01,.35-.1,.74-.22,.85-.54,.1-.29,0-.74-.22-.94-.29-.27-.82-.09-1.25,.05l-.08,.03s-4.66,1.51-5.35,.06c-.25-.51-.01-1.22,.76-2.28,.2-.74,.35-1.8-.01-2.78-.61-1.68-2.41-2.18-4.15-2.66-1.62-.45-3.03-.84-4.61-.02-.8,.41-2.23,1.39-2.77,3.31-.33,1.17-.18,2.19,.01,3.48,.22,1.45,.4,2.7,1.03,3.13h0Z"/></g><path class="k" d="M161.92,146.18c-2.53-.61-4.07,2.4-9.48,7.46-5.1,4.77-10.64,8.57-10.74,8.65h0c.39,1.72,.45,1.96,.45,1.96s.28,1.12,.74,2.51c.76,2.28,2.16,4.49,3.09,6.22,.93,1.74,1.46,3.18,2.53,6.07,2.13,5.78,3.76,10.21,3.74,15.31,0,.92-.06,2.89,.19,2.94,.21,.04,.56-1.17,.74-2.18,.32-1.75,.1-2.82-.08-6.34-.15-2.84-.05-2.96,0-2.97,.3-.08,1.08,2.45,1.27,4.01,.03,.22,.05,.45,.05,.45,.1,1.17,.04,2.28,0,2.28-.07,0-.8-4.01,.74-7.23,.25-.52,.97-2.01,1.9-1.98,.18,0,.8,.08,1.98,2.38,1.39,2.71,1.66,4.81,1.98,4.75,.26-.05,.4-1.51,.25-2.97-.21-1.93-.79-2.4-1.32-4.85-.35-1.62-.52-2.45-.16-3.27,.51-1.19,1.9-1.93,2.8-1.49,.82,.4,1,1.64,1.32,2.77,.85,3.04,2.27,3.87,4.2,6.73,.55,.82,.91,1.46,4.2,9.51,3.82,9.35,4.98,12.51,5.69,12.28,.49-.16,.54-1.86,.49-2.67-.11-2.15-1.08-3.01-1.9-5.15-.45-1.18-.22-1.09-.99-6.04-.72-4.61-1.21-6.6-.91-6.73,.23-.1,.59,.98,1.9,3.07,.3,.48,.44,.68,3.21,4.36,1.19,1.58,1.79,2.37,2.06,2.28,.81-.29,.71-3.86,.41-6.34-.35-2.9-.98-4.38-2.31-8.51-.42-1.31-2.97-9.28-2.55-9.51,.16-.09,.64,1.02,2.14,3.66,1.57,2.77,2.36,4.15,3.05,4.85,2.48,2.53,6.16,2.82,6.43,2.08,.12-.32-.44-.76-1.32-1.88-1.43-1.83-1.98-3.28-3.05-5.54-2.21-4.69-2.43-3.93-5.52-10.1-1.7-3.39-2.06-4.47-3.46-6.04-1.68-1.88-2.11-1.39-4.1-3.26-2.72-2.55-2.59-4.09-6.03-8.13-1.81-2.12-2.71-3.18-3.63-3.4Z"/><path class="k" d="M182.6,144.49c.65-.33,1.9-.66,3.26-.61,2.51,.1,4.28,1.48,5.03,2.08,1.98,1.58,2.98,3.53,3.54,4.65,2.12,4.23,2.13,8.42,2.14,11.68,0,3.05,.01,4.97-.91,7.13-.49,1.16-1.54,3.05-2.47,4.55-.89,1.43-1.43,2.12-1.73,3.47-.38,1.69-.08,3.16-.16,3.17-.14,.02-.39-4.53-.91-4.55-.32-.01-.91,1.72-.58,3.37,.41,2.02,2.02,2.96,1.9,3.17-.12,.2-1.79-.38-2.47-1.98-.73-1.73,.08-3.76-.16-3.86-.22-.1-.91,2.85-1.4,2.77-.59-.09-.41-4.55-1.07-4.65-.42-.07-.88,1.68-1.15,1.58-.37-.13,.37-3.47-.33-3.86-.42-.23-1.11,.73-1.24,.59-.24-.26,2.32-3.68,1.98-4.16-.32-.45-2.47,2.55-4.08,2.07-4-1.2-4.72-23.77,.82-26.61Z"/><path class="i" d="M106.09,181.3c.05,1.59,1.48,5.02,1.87,5.94,.65,1.55,.96,1.92,2.42,4.75,2.69,5.24,2.21,5.06,2.97,5.94,2.52,2.94,4.78,1.33,6.7,4.09,.54,.78,.77,1.49,1.54,6.34,.78,4.95,1.17,7.42,1.32,8.98,.21,2.23,.18,2.93,0,15.58-.08,5.44-.11,8.09-1.76,9.77-.55,.56-1.57,1.32-2.86,1.58-2.38,.5-3.47-1.13-4.84-.26-1.38,.87-1.99,3.61-1.32,4.49,.54,.72,1.91,.18,2.42,0,6.91-2.45,30.27-1.36,38.46,1.06,.71,.21,2.83,.88,3.08,.26,.22-.55-1.11-2.01-2.42-2.9-2.74-1.89-6.15-1.85-6.15-1.85,0,0-1.75-3.12-3.96-3.96-.96-.37-1.23,0-5.06,.79-.62,.13-2.65,.54-4.62,.79-3.5,.45-5.25,.67-6.15,0-1.94-1.44-1.89-5.36-1.76-10.83,.2-8.47,1.67-8.44,1.32-14.52-.21-3.7-.87-5.61-.88-11.09,0-2.84,.07-4.2,.22-5.28,.36-2.61,.82-2.99,1.21-6.07,.22-1.71,.24-2.85,.55-2.9,.4-.07,.49,1.81,1.87,3.43,1.01,1.19,1.67,1.01,2.31,2.11,.71,1.23,.59,2.68,.55,3.3-.24,3.65,.56,7.3,.66,10.96,.25,8.87,1.69,8.16,1.43,14.79-.12,2.96-.48,5.1-.44,9.24,.02,2.34,.16,3.06,0,5.02-.19,2.32-.5,3-.11,3.83,.87,1.84,4.18,2.24,4.95,.92,.64-1.1-.96-2.59-.99-5.81-.02-2.24,.73-3.83,1.1-4.75,1.68-4.27,.33-8.02,.11-20.59,0,0-.15-8.77,1.1-15.71,.35-1.93,.82-3.82,1.76-5.81,.87-1.85,1.43-2.3,2.53-4.22,.53-.93,2.35-4.16,2.75-6.73,.8-5.24-3.94-10.36-4.51-10.96-10.61-11.2-37.57,3.13-37.36,10.3Z"/><path class="j" d="M128.4,191.99c.31-.39-.45-1.47-1.51-4.19-.59-1.51-1.15-3.22-1.18-3.3-.02-.05-.04-.11-.05-.17-1.28-3.99-.68-4.71-1.4-5.54-1.63-1.89-5.12,1.26-10.47,1.78-4.4,.43-6.99-2.55-7.83-1.19-.53,.86,.08,2.62,1.02,5.35,.58,1.68,1.33,3.22,1.33,3.22,.48,.99,.64,1.15,1.17,2.32,.32,.7,.68,1.37,.97,2.08,.36,.88,.48,1.32,.86,1.47,.25,.1,.4,0,1.08-.18,.42-.11,.85-.16,1.28-.25,0,0,.86-.18,3.26-.64,0,0,3.44-.67,9.23-.5,0,0,.59-.05,1.77-.15,.28-.02,.42-.04,.48-.12Z"/><path class="m" d="M118.77,74.83c-.02-.3-.27-.6-2.14-1.49-1.32-.63-1.19-.48-1.98-.89-1.47-.77-2.27-.87-2.51-1.63-.11-.33-.06-.57-.22-.68-.31-.21-.74,.45-1.61,1.06-.63,.44-1.45,.67-3.08,1.19-1.44,.45-1.43,.14-3.52,.66-1.07,.27-1.84,.54-2.53,.79-1.89,.69-2.91,1.06-2.89,1.39,.03,.46,2.02,.23,5.31,1.09,1.77,.46,1.88,.71,3.87,1.19,1.83,.44,2.75,.66,4.04,.59,.94-.05,.43-.16,4.24-1.09,.25-.06,1.2-.29,2.18-1.09,.45-.37,.85-.7,.82-1.09Z"/><path class="o" d="M98.41,77.16c.61,.75,1.52,1.04,1.52,1.04,.99,.32,1.75,.2,2.72,.15,1.23-.07,.64,.1,4.2,.15,.51,0,4.44,.06,4.45-.15,0-.1-.88-.17-2.1-.4-2.1-.39-2.12-.68-4.74-1.37-1.34-.35-2.95-.68-6.17-1.35h-.04s-.29,.29-.35,.62c-.04,.22,.03,.41,.13,.66,.12,.31,.28,.53,.37,.64Z"/><g class="n"><ellipse class="l" cx="97.03" cy="70.14" rx="2.64" ry="2.77"/></g><ellipse class="p" cx="95.46" cy="67.37" rx=".67" ry=".8"/><path class="p" d="M86.97,127.17c.15-.01,.37,.18,.66,1.06,.2,.11,.69,.33,1.28,.2,.11-.02,.56-.13,1.03-.59,1-1,1.06-2.67,1.21-2.64,.16,.03-.27,1.86,.51,3,.32,.46,.91,.92,1.36,.73,.26-.11,.48-.42,.96-2.87,.33-1.72,.41-2.57,.58-2.57,.19,0,.19,1.08,.79,2.61,.31,.8,.58,1.45,1.17,1.9,.18,.14,.91,.69,1.66,.37,.72-.3,.49-1.64,1.21-1.98,.42-.2,.78,.07,.88-.13,.15-.32-.63-1.29-.77-1.19-.1,.07,.34,1.19,1.21,3.43,.86,2.2,1.29,3.3,1.54,3.56,1.25,1.31,3.28,.62,5.6,0,2.9-.78,5.89-.96,8.79-1.72,6.31-1.65,4.74-.94,11.87-2.77,9.7-2.49,9.33-2.94,13.41-3.56,4.54-.69,7.91-.56,12.31-.4,7.11,.27,10.66,.4,14.51,2.24,1.8,.86,5.57,2.73,8.9,7.13,4.16,5.5,5.05,11.55,5.93,17.56,.92,6.26,.21,10.33-1.21,18.48-.1,.55-.29,1.62-.88,1.85-1.57,.61-3.07-5.91-8.68-11.88-.28-.3-3.87-4.1-6.81-6.86-1.35-1.26-2.3-2.06-2.97-3.7-.44-1.08-.63-2.2-1.1-2.24-.51-.04-.96,1.22-1.1,1.58-1.42,3.68-6.22,6.57-9.34,8.45-1.69,1.02-3.73,2.35-7.8,5.02-.57,.37-1.17,.78-1.43,1.58-.69,2.15,1.48,5.73,2.74,7.8,.69,1.14,1.1,1.65,1,2.37-.2,1.37-2.09,2.03-3.52,2.51-6.03,2.02-9.04,3.03-9.12,3.04-16.01,2.22-18.86,4-27.25,2.77-6.65-.97-9.14-2.71-10.22-3.56-4.42-3.48-6.4-8.61-7.47-11.49-1.81-4.85-2.08-8.69-2.53-15.58-.71-11.11-.07-23.42,1.1-23.5Z"/></g></g><g id="d"/><g id="e"/><g id="f"/><g id="g"/></svg>